<svg version="1.1" id="Layer_1" xmlns="http://www.w3.org/2000/svg" xmlns:xlink="http://www.w3.org/1999/xlink" x="0px" y="0px"
	 width="100%" viewBox="0 0 1024 1024" enable-background="new 0 0 1024 1024" xml:space="preserve">
<path fill="#000000" opacity="1.000000" stroke="none" 
	d="
M191.741882,713.673340 
	C182.027924,708.871460 181.651474,700.441772 183.134262,692.059509 
	C184.421936,684.780273 191.285614,679.961365 199.890335,679.718750 
	C207.717010,679.497925 215.564438,679.387634 223.382385,679.714661 
	C228.203674,679.916260 230.228424,678.047668 231.082428,673.425964 
	C232.981522,663.148376 235.328186,652.953857 237.428101,642.712341 
	C237.654953,641.605896 237.458649,640.412720 237.458649,639.337952 
	C235.203491,637.608826 232.786179,638.281677 230.536102,638.279175 
	C175.709366,638.218384 120.882561,638.196167 66.055779,638.193726 
	C61.379070,638.193542 56.709286,638.109070 52.239872,636.610229 
	C40.519047,632.679688 33.661545,622.810791 33.658871,609.884460 
	C33.644054,538.225952 33.651806,466.567474 33.651714,394.908997 
	C33.651657,348.747589 34.010548,302.581970 33.464462,256.427002 
	C33.262089,239.322601 45.911713,227.626053 62.168011,227.639252 
	C212.650665,227.761383 363.133453,227.719604 513.616211,227.724045 
	C524.948242,227.724380 536.280334,227.676727 547.612183,227.717087 
	C564.079956,227.775742 575.314087,238.946167 575.316772,255.330643 
	C575.335938,373.483826 575.337463,491.636993 575.329163,609.790161 
	C575.328064,625.226440 565.795471,636.311890 550.357483,637.545410 
	C530.914062,639.098877 511.384552,638.170105 491.894348,638.250244 
	C453.899506,638.406311 415.903503,638.271179 377.907959,638.263245 
	C370.216888,638.261658 369.815094,638.675476 371.317505,646.239258 
	C373.225128,655.842834 375.467285,665.383545 377.188293,675.018738 
	C377.836975,678.650208 379.565338,679.691956 382.910248,679.656250 
	C391.408112,679.565552 399.915039,679.436523 408.404510,679.727112 
	C415.528198,679.970947 421.697052,682.728088 424.119263,689.920166 
	C426.462799,696.878540 426.846375,704.019470 421.353455,710.116760 
	C417.731323,714.137451 413.003845,715.347412 407.833618,715.353333 
	C392.002106,715.371582 376.170593,715.372986 360.339081,715.373596 
	C307.511780,715.375671 254.684479,715.368042 201.857178,715.389771 
	C198.506104,715.391174 195.189911,715.386353 191.741882,713.673340 
M386.500000,575.099854 
	C406.990753,575.286865 427.479980,575.078247 447.975006,575.400452 
	C477.259247,575.860779 506.555420,575.553345 535.846436,575.598267 
	C544.676331,575.611816 544.689636,575.649170 544.690186,566.734192 
	C544.696350,468.079865 544.717712,369.425537 544.676697,270.771210 
	C544.671448,258.144409 546.468201,259.181580 533.278503,259.178345 
	C379.465424,259.140442 225.652359,259.138947 71.839294,259.127197 
	C63.357677,259.126556 63.350342,259.123810 63.350166,267.804932 
	C63.348179,367.959076 63.348553,468.113251 63.348656,568.267395 
	C63.348660,569.267273 63.426353,570.273254 63.342709,571.265869 
	C63.070114,574.500488 64.474091,575.633789 67.731850,575.614746 
	C87.704567,575.497803 107.678391,575.589478 127.651512,575.518555 
	C152.775925,575.429382 177.899918,575.155151 203.024261,575.129883 
	C263.849457,575.068726 324.674744,575.105591 386.500000,575.099854 
z"/>
<path fill="#000000" opacity="1.000000" stroke="none" 
	d="
M193.867035,772.422668 
	C198.546326,760.309387 205.359695,755.625122 217.894455,755.624451 
	C310.518280,755.619934 403.143066,755.833862 495.764923,755.409180 
	C510.945160,755.339600 521.610229,766.135925 521.492981,781.179199 
	C521.104614,830.986450 521.351746,880.798584 521.342896,930.608887 
	C521.339905,947.460632 511.512024,957.289124 494.652283,957.291016 
	C403.028015,957.301575 311.403778,957.307739 219.779510,957.299194 
	C202.970886,957.297607 193.118073,948.065613 193.051865,931.195557 
	C192.853821,880.720337 192.995834,830.243652 193.052505,779.767639 
	C193.055099,777.452454 193.518463,775.137817 193.867035,772.422668 
M265.775757,836.728882 
	C267.147949,838.346802 269.095215,839.509460 269.905426,842.080078 
	C268.309662,843.761902 266.648926,845.591919 264.904175,847.338013 
	C254.903915,857.345703 244.820740,867.271484 234.903610,877.360718 
	C231.323212,881.003357 231.122345,885.981628 233.956619,889.033386 
	C237.161560,892.484253 241.583298,892.758057 245.489151,889.141235 
	C259.783356,875.904846 273.481903,862.055603 286.728333,847.776489 
	C290.857483,843.325439 290.602356,839.543335 286.529053,834.899231 
	C283.679749,831.650696 280.557739,828.636658 277.493011,825.582520 
	C267.471222,815.595886 257.464569,805.593201 247.360184,795.690491 
	C242.647018,791.071289 237.919647,790.703430 234.100967,794.335083 
	C230.842148,797.434326 231.505188,802.530273 235.926956,806.971008 
	C245.673279,816.759155 255.485458,826.481750 265.775757,836.728882 
M367.242188,869.812500 
	C365.767059,869.630188 364.292419,869.293274 362.816772,869.289001 
	C344.515991,869.236572 326.214996,869.188416 307.914307,869.242004 
	C302.078918,869.259033 299.405426,871.710144 299.361328,876.612793 
	C299.315918,881.662964 302.277527,884.580017 308.030365,884.607727 
	C326.164642,884.695007 344.299622,884.632690 362.434326,884.644836 
	C366.470520,884.647522 369.623169,883.164795 371.114594,879.246033 
	C372.565643,875.433167 371.224243,872.438477 367.242188,869.812500 
z"/>
<path fill="#000000" opacity="1.000000" stroke="none" 
	d="
M715.438293,238.411194 
	C712.890381,237.003296 710.568909,236.159409 707.979187,236.275055 
	C706.118225,236.358170 704.110107,236.364243 703.433838,238.535553 
	C702.802002,240.564484 703.932434,242.026886 705.556702,243.171188 
	C706.916931,244.129456 708.180481,245.235443 709.586975,246.115952 
	C715.488953,249.810699 719.310425,255.222763 721.870789,261.493378 
	C729.922607,281.213654 740.890625,284.121948 761.081848,282.281647 
	C767.965698,281.654236 767.899536,281.236511 768.122986,288.186340 
	C768.325684,294.488190 769.234192,300.843353 768.688904,307.075043 
	C767.903381,316.051453 763.926636,318.151031 755.425781,315.318268 
	C734.911987,308.482391 717.484070,296.847107 702.661560,281.244385 
	C682.565125,260.090118 670.113159,234.955765 665.951477,206.185196 
	C661.036926,172.209793 668.233582,140.449951 687.722412,112.158539 
	C710.843384,78.594368 742.868835,58.723347 783.546814,53.610722 
	C854.333557,44.713848 920.834595,95.151360 932.541687,165.656311 
	C942.982056,228.532608 905.946289,290.535797 848.465881,313.627533 
	C846.307495,314.494629 844.115967,315.326599 841.873718,315.928619 
	C834.813354,317.824249 830.773743,314.870575 830.708496,307.552185 
	C830.646179,300.556610 830.638306,293.538055 831.118958,286.564911 
	C832.080444,272.612823 831.443542,258.970367 825.191162,246.103149 
	C825.000671,245.711197 825.167053,245.145889 825.167053,244.364639 
	C829.050537,242.831985 833.274353,243.632736 837.300598,242.931473 
	C859.999878,238.977859 876.871521,223.044052 881.352722,200.256485 
	C884.460388,184.453629 885.076294,168.630783 875.804810,154.452972 
	C871.618958,148.052017 868.188171,142.701996 871.357605,134.336624 
	C873.820740,127.835480 871.383850,120.520508 869.490662,113.749832 
	C868.185181,109.080719 864.664856,108.747765 860.737427,109.587418 
	C852.264526,111.398849 844.729858,115.413803 837.928345,120.531509 
	C833.824097,123.619766 830.370544,124.251411 825.201721,123.065506 
	C807.146423,118.923027 788.911011,118.734734 770.928833,123.848206 
	C767.919556,124.703918 765.977417,124.105057 763.655273,122.392456 
	C756.257690,116.936638 748.535034,112.032028 739.415222,109.862915 
	C733.222656,108.390030 731.290161,109.553436 729.439148,115.475479 
	C726.678528,124.307655 726.052551,133.115540 729.604309,141.842407 
	C730.642700,144.393799 729.516846,146.009323 728.047607,147.642990 
	C707.759399,170.200882 712.933533,219.644928 746.046692,237.443634 
	C753.223694,241.301331 760.930664,243.077469 768.981262,243.629395 
	C770.614746,243.741379 772.252197,243.795807 774.663452,243.915176 
	C772.297485,250.174133 770.363037,256.088959 768.507507,261.975403 
	C767.271606,265.896240 762.050110,265.667999 758.417419,266.189484 
	C747.832275,267.709076 738.805786,265.595306 732.584595,255.482117 
	C728.403931,248.685928 722.611023,242.992722 715.438293,238.411194 
z"/>
<path fill="#000000" opacity="1.000000" stroke="none" 
	d="
M890.327148,739.070923 
	C890.327759,745.891846 890.353149,752.222900 890.320312,758.553650 
	C890.284729,765.421631 888.667358,767.434143 881.980103,768.699524 
	C879.871094,769.098633 877.682373,769.056335 875.543518,769.322998 
	C872.800171,769.665161 869.520081,768.200989 868.064758,772.412720 
	C866.589050,776.683411 865.492615,780.214233 869.233643,784.260132 
	C879.121460,794.953369 878.919922,796.127136 868.556458,806.507996 
	C864.437073,810.634399 860.308777,814.755920 856.066833,818.754822 
	C851.291443,823.256470 848.558899,823.381836 843.318909,819.622437 
	C842.237732,818.846741 841.190979,818.018372 840.168701,817.165955 
	C833.139160,811.304688 829.631897,811.301086 822.354797,816.903625 
	C820.835571,818.073364 820.324036,819.402344 820.352295,821.171387 
	C820.386841,823.336548 820.369019,825.503113 820.340881,827.668640 
	C820.252258,834.498535 817.477295,837.295410 810.575378,837.349426 
	C802.578857,837.411987 794.581299,837.424561 786.584778,837.369568 
	C780.457336,837.327393 777.904236,834.784363 777.572998,828.590515 
	C777.457520,826.430054 777.253052,824.260437 777.346619,822.106140 
	C777.493835,818.715881 775.899353,816.893555 773.098633,814.968384 
	C767.979370,811.449646 764.272217,812.069397 759.531250,816.025452 
	C748.749146,825.022461 748.526245,824.741943 738.852112,814.781616 
	C734.442078,810.240967 729.911865,805.813416 725.602112,801.180115 
	C721.541748,796.814880 721.480164,793.489197 725.095886,788.759216 
	C726.307068,787.174622 727.561584,785.565674 729.055664,784.265930 
	C732.914673,780.908569 732.445068,777.326294 730.405273,773.177673 
	C729.034302,770.389465 727.264038,769.341064 724.214600,769.250610 
	C708.601624,768.787659 707.817261,767.899109 707.786072,752.126831 
	C707.774841,746.462341 707.730713,740.797791 707.743835,735.133362 
	C707.760681,727.851685 710.045715,725.172607 717.161926,724.119202 
	C718.472839,723.925049 719.819702,723.947266 721.151001,723.920837 
	C728.753113,723.769592 730.827698,721.892395 732.290710,714.335144 
	C732.763489,711.892761 731.372131,710.479187 729.996643,709.146729 
	C718.831177,698.330383 720.942505,694.198669 730.761475,685.158569 
	C734.802002,681.438599 738.464905,677.307068 742.523254,673.608276 
	C746.985168,669.541748 750.699158,669.475647 755.537354,672.928101 
	C756.620911,673.701172 757.643677,674.560669 758.682800,675.394714 
	C765.032715,680.490784 768.468018,680.457764 774.920410,675.583069 
	C776.999878,674.012024 776.970093,671.969238 777.099243,669.807617 
	C777.976807,655.121033 778.479736,654.656921 793.301453,654.653015 
	C798.965942,654.651550 804.630676,654.624329 810.294922,654.662354 
	C817.736572,654.712402 820.263733,657.198792 820.345215,664.452148 
	C820.347107,664.618774 820.345398,664.785339 820.346558,664.951965 
	C820.416931,675.281860 820.452271,675.194885 830.222656,679.163147 
	C832.401001,680.047913 833.957825,679.896606 835.658630,678.442383 
	C837.556396,676.819580 839.521912,675.269775 841.523132,673.775391 
	C847.729248,669.140808 851.476318,669.236023 856.936401,674.499878 
	C862.330811,679.700439 867.629272,685.009521 872.783691,690.447388 
	C877.757202,695.694336 877.656433,699.885254 872.819214,705.333130 
	C871.602661,706.703369 870.518250,708.236633 869.123474,709.394165 
	C864.966675,712.843750 866.536438,716.696350 867.931763,720.721191 
	C869.305969,724.685242 872.527649,723.812988 875.420715,723.956116 
	C875.586975,723.964355 875.753845,723.957642 875.920471,723.959045 
	C888.215698,724.060608 890.322815,726.199341 890.327148,739.070923 
M767.469360,773.035400 
	C780.204041,786.978699 796.965027,791.363586 813.575989,785.097290 
	C828.775818,779.363281 839.502930,764.394165 839.917847,748.338745 
	C840.720459,717.281372 809.901428,695.862061 782.312439,708.379822 
	C758.792664,719.051208 748.396545,749.390381 767.469360,773.035400 
z"/>
<path fill="#000000" opacity="1.000000" stroke="none" 
	d="
M884.441956,563.422058 
	C876.477295,571.033752 867.453857,574.681763 856.633911,574.443298 
	C842.309387,574.127563 827.971008,574.486267 813.642090,574.294617 
	C809.469604,574.238831 808.075562,575.722229 808.152405,579.810303 
	C808.345581,590.076965 808.216309,600.349731 808.216309,610.883728 
	C811.741211,610.872070 812.800720,608.473450 814.449036,607.059998 
	C816.721252,605.111633 818.746704,602.896912 822.045776,602.650879 
	C825.669128,602.380676 828.820129,603.262390 830.562622,606.581787 
	C832.198059,609.697021 832.430420,613.316528 830.029053,616.014648 
	C822.497437,624.477417 814.459045,632.489319 805.570129,639.521484 
	C801.485474,642.752991 795.694519,642.308411 791.642883,638.923340 
	C783.838562,632.403076 776.591125,625.255432 769.649414,617.837219 
	C765.745544,613.665283 765.852051,608.838074 769.210510,605.244995 
	C772.511414,601.713257 777.954956,601.600220 782.305603,605.127258 
	C784.598572,606.986084 786.703186,609.077332 788.833374,611.009644 
	C791.326599,609.645020 790.625732,607.600525 790.641479,605.922363 
	C790.719482,597.590881 790.380859,589.244202 790.778442,580.931030 
	C791.032776,575.613342 788.631348,574.318604 783.993225,574.349731 
	C769.329102,574.448181 754.663818,574.399780 739.999084,574.357361 
	C720.772705,574.301758 705.589478,559.582458 705.499329,540.342834 
	C705.344910,507.371887 705.453125,474.398865 705.627014,441.427612 
	C705.716980,424.365845 720.706055,408.892212 737.806213,408.785095 
	C778.799377,408.528259 819.796448,408.522491 860.789490,408.792816 
	C877.724670,408.904480 892.571716,422.862122 893.285767,439.539490 
	C894.732788,473.338928 893.845398,507.173126 893.749023,540.992188 
	C893.724915,549.444336 890.410278,556.872559 884.441956,563.422058 
M731.750549,429.142181 
	C725.676636,432.356903 723.141907,437.384308 723.173096,444.255951 
	C723.313904,475.252502 723.237732,506.250031 723.279968,537.247131 
	C723.296997,549.750244 730.215027,556.651367 742.736267,556.659180 
	C780.566284,556.682800 818.396362,556.684448 856.226379,556.658325 
	C869.191467,556.649353 876.472046,549.760132 876.555725,536.664978 
	C876.750549,506.168945 876.698975,475.670563 876.579834,445.173828 
	C876.540833,435.188629 871.215515,429.205292 861.393555,426.979462 
	C859.072693,426.453491 856.780640,426.385986 854.454285,426.385529 
	C817.464905,426.378540 780.475586,426.393402 743.486206,426.359467 
	C739.585449,426.355896 735.879822,426.975983 731.750549,429.142181 
z"/>
<path fill="#000000" opacity="1.000000" stroke="none" 
	d="
M691.957031,840.985229 
	C672.802917,857.243225 650.995117,865.306763 626.201355,865.264893 
	C611.214111,865.239563 596.226685,865.241821 581.239624,865.301697 
	C579.167664,865.309937 576.864441,864.697937 575.113342,866.660400 
	C575.113464,869.408081 577.497314,870.489868 578.999756,872.142822 
	C583.041565,876.589478 583.464111,882.594727 579.892212,886.041687 
	C576.408569,889.403687 570.553833,889.208374 566.393250,885.200439 
	C559.438782,878.500916 552.556152,871.716248 545.888977,864.732788 
	C541.118408,859.735901 541.319763,853.618835 546.164734,848.696045 
	C553.055054,841.695068 560.025024,834.769531 567.082825,827.937744 
	C571.382080,823.776001 576.007263,823.711426 579.938293,827.427429 
	C583.208740,830.518982 583.231323,836.087952 579.755859,840.101318 
	C577.924072,842.216736 575.729858,844.018188 573.408691,846.239563 
	C575.403442,847.772522 577.380066,847.582397 579.263794,847.585083 
	C596.582458,847.609558 613.947998,848.420959 631.209167,847.427490 
	C659.566406,845.795288 681.316101,832.229675 696.321777,808.026367 
	C696.671997,807.461548 696.938782,806.845642 697.273010,806.270142 
	C700.140320,801.333313 705.400757,799.351257 709.908936,801.502136 
	C714.368042,803.629578 715.980652,808.393188 713.532227,813.997925 
	C710.093994,821.868713 704.678894,828.434204 698.738037,834.552917 
	C696.652222,836.701172 694.393188,838.681152 691.957031,840.985229 
z"/>
<path fill="#000000" opacity="1.000000" stroke="none" 
	d="
M830.879761,363.385101 
	C832.659668,367.939240 831.694397,371.674927 828.571655,374.696838 
	C821.284363,381.748810 813.996033,388.811615 806.434631,395.563812 
	C802.333252,399.226257 797.616211,399.473633 793.093567,396.208160 
	C784.028442,389.662842 776.324829,381.547546 768.786133,373.362213 
	C765.354736,369.636597 766.105469,364.344879 769.519714,361.185638 
	C772.915405,358.043610 777.094971,358.025299 781.299683,361.270264 
	C782.739807,362.381622 783.956177,363.778564 785.321167,364.992828 
	C786.554810,366.090271 787.851929,367.116486 789.341309,368.357635 
	C790.752136,365.755157 790.665283,363.153412 790.666992,360.573181 
	C790.674683,349.093842 790.549255,337.612610 790.723267,326.135864 
	C790.841431,318.349823 797.956360,314.301361 804.246948,318.245117 
	C807.619263,320.359283 808.223633,323.738342 808.219299,327.383698 
	C808.205627,338.862976 808.205566,350.342438 808.264709,361.821472 
	C808.272888,363.405121 807.634033,365.467468 809.439941,366.361176 
	C811.570129,367.415314 812.703064,365.347229 813.987427,364.175110 
	C821.552612,357.270721 825.325867,356.996338 830.879761,363.385101 
z"/>
<path fill="#000000" opacity="1.000000" stroke="none" 
	d="
M526.396118,554.795898 
	C523.728210,560.621521 519.010132,561.346436 513.710876,561.341797 
	C447.225739,561.283630 380.740601,561.292786 314.255463,561.282959 
	C241.605133,561.272278 168.954819,561.258667 96.304489,561.249451 
	C84.474365,561.247925 80.669472,557.508179 80.669594,545.812195 
	C80.670448,459.998047 80.674675,374.183929 80.679527,288.369781 
	C80.680183,276.854218 84.465187,273.000763 95.873276,272.997589 
	C128.199173,272.988586 160.525055,273.010437 192.850952,273.008728 
	C299.493317,273.003052 406.135712,272.995605 512.778076,272.978790 
	C523.866882,272.977020 527.347717,276.431335 527.348022,287.598816 
	C527.350037,373.912872 527.354370,460.226898 527.327942,546.540955 
	C527.327148,549.172791 527.835327,551.890259 526.396118,554.795898 
M307.762878,449.462219 
	C313.733307,429.720825 319.710052,409.981354 325.671600,390.237274 
	C328.844299,379.729431 332.105377,369.246155 335.101318,358.687897 
	C336.641327,353.260468 333.186951,349.130737 327.584595,349.087677 
	C322.237213,349.046570 319.926361,352.529907 318.560089,356.928070 
	C315.352814,367.252655 312.275269,377.617432 309.130615,387.961517 
	C300.857361,415.175415 292.556641,442.380920 284.312012,469.603485 
	C282.195740,476.591003 283.813568,481.242065 288.615479,482.563995 
	C294.156891,484.089478 298.007294,481.457428 300.142365,474.582581 
	C302.658203,466.481598 305.112793,458.361572 307.762878,449.462219 
M373.065979,440.621887 
	C367.966827,444.369049 362.791016,448.017883 357.802643,451.907166 
	C355.494354,453.706848 354.133148,456.214722 354.902924,459.353668 
	C355.710602,462.647156 358.115540,464.375305 361.169281,465.158508 
	C364.060059,465.899902 366.290222,464.130646 368.431732,462.574524 
	C385.682129,450.039246 402.939209,437.512573 420.119202,424.881165 
	C427.413177,419.518280 427.208099,413.847931 419.853943,408.482483 
	C410.434204,401.610107 401.076752,394.652344 391.661713,387.773499 
	C383.458038,381.779755 375.312561,375.698029 366.947510,369.936615 
	C361.646454,366.285492 355.448608,368.751892 354.664520,374.622589 
	C354.132416,378.606812 356.776520,381.035767 359.707611,383.158081 
	C369.421753,390.191681 379.137390,397.223267 388.830048,404.286438 
	C394.276001,408.254974 399.677765,412.284180 405.745270,416.762756 
	C394.563019,424.936066 384.109924,432.576416 373.065979,440.621887 
M210.546051,428.900879 
	C222.608215,437.775818 234.658173,446.667450 246.739578,455.516113 
	C250.628708,458.364563 254.467514,461.319824 258.580750,463.811157 
	C261.439972,465.542969 264.740234,465.500397 267.424011,463.151367 
	C269.775330,461.093384 270.211365,458.270142 269.355194,455.355438 
	C268.718231,453.187012 267.003052,451.754913 265.247314,450.463867 
	C256.132416,443.761475 246.989426,437.097260 237.876663,430.392029 
	C231.887772,425.985291 225.933502,421.531525 219.922607,417.068298 
	C221.627548,414.190430 224.052002,412.964447 226.149399,411.422791 
	C239.154373,401.863556 252.225876,392.394806 265.222992,382.824951 
	C269.921631,379.365356 270.985016,374.924011 268.227936,371.310211 
	C265.412262,367.619598 260.873413,367.207855 256.262878,370.485565 
	C249.889572,375.016449 243.621597,379.695953 237.325012,384.334198 
	C226.073227,392.622498 214.740509,400.805176 203.626617,409.274719 
	C197.641541,413.835815 197.926010,419.503204 203.917526,424.072235 
	C205.901566,425.585205 207.933716,427.035095 210.546051,428.900879 
M133.499542,531.775879 
	C183.654709,531.757263 233.809891,531.747192 283.965057,531.707397 
	C289.261017,531.703186 292.470490,529.476868 292.467926,526.036194 
	C292.465363,522.581970 289.195374,520.308472 284.035248,520.188843 
	C282.702759,520.157959 281.369354,520.159668 280.036346,520.158508 
	C244.711029,520.126404 209.385727,520.090454 174.060410,520.067261 
	C154.231598,520.054199 134.402740,520.035583 114.574020,520.077148 
	C108.358345,520.090149 106.130035,521.807739 106.276077,526.136475 
	C106.414215,530.230896 108.677956,531.803223 114.503899,531.806885 
	C120.502480,531.810669 126.501076,531.789185 133.499542,531.775879 
M169.500000,334.929169 
	C151.197021,334.936859 132.894043,334.939545 114.591072,334.956024 
	C110.499519,334.959717 106.718246,335.558197 106.343307,340.752930 
	C106.038193,344.980103 108.916183,347.603607 114.273239,347.576447 
	C145.546906,347.417877 176.820251,347.175079 208.093048,346.888702 
	C212.444321,346.848877 215.686172,343.832306 215.527756,340.425537 
	C215.378403,337.213745 211.624817,334.322784 207.423904,334.590393 
	C195.118057,335.374298 182.806717,334.746033 169.500000,334.929169 
M203.500031,314.736115 
	C225.489868,314.740906 247.479782,314.717133 269.469482,314.776001 
	C273.584595,314.787018 276.288666,313.307739 276.600891,308.932739 
	C276.872620,305.125336 274.051788,302.386749 269.493347,302.379669 
	C241.173309,302.335724 212.853027,302.363312 184.533051,302.444672 
	C180.385483,302.456604 177.408508,304.637451 176.759811,308.788269 
	C176.238205,312.125824 179.719437,314.661041 184.508865,314.733826 
	C190.504562,314.824951 196.502914,314.742432 203.500031,314.736115 
M357.500031,520.269592 
	C344.197357,520.256836 330.894592,520.262024 317.592010,520.220398 
	C313.615112,520.207947 310.868286,522.206116 310.889893,526.003113 
	C310.909912,529.519836 313.648712,531.616516 317.311768,531.625916 
	C337.431854,531.677856 357.552216,531.685425 377.672302,531.635437 
	C381.492645,531.625916 384.419464,529.631287 384.382446,525.758484 
	C384.344452,521.788025 381.296478,520.248779 377.456238,520.273376 
	C371.137756,520.313965 364.818787,520.275085 357.500031,520.269592 
M126.503326,488.136658 
	C122.337982,488.137573 118.172295,488.105713 114.007393,488.149017 
	C110.199028,488.188599 106.891403,489.169250 106.465294,493.668365 
	C106.131752,497.190094 109.256409,499.600250 114.079475,499.617920 
	C127.408867,499.666718 140.738861,499.580627 154.067947,499.659912 
	C158.068878,499.683716 161.061951,498.497284 161.553223,494.148590 
	C161.958817,490.558533 158.995651,488.261292 153.994141,488.208893 
	C145.164185,488.116333 136.332825,488.155823 126.503326,488.136658 
M106.656273,310.782440 
	C108.082184,313.928558 110.576157,314.893219 113.930824,314.857544 
	C125.416817,314.735229 136.904907,314.826416 148.392044,314.788818 
	C153.701065,314.771454 156.488998,312.695618 156.573944,308.853119 
	C156.653778,305.242645 153.477890,302.502563 148.524231,302.452423 
	C136.871796,302.334381 125.216141,302.331696 113.564110,302.473267 
	C108.709999,302.532288 106.736443,304.872009 106.656273,310.782440 
M206.493866,488.132050 
	C199.686676,488.146301 192.879395,488.145569 186.072311,488.180817 
	C182.423828,488.199707 179.698700,489.882111 179.600220,493.615387 
	C179.503128,497.296661 182.124619,499.467743 185.698212,499.517578 
	C196.985550,499.675018 208.279877,499.724030 219.564011,499.475128 
	C222.947235,499.400513 225.728104,497.401245 225.558670,493.496918 
	C225.400711,489.856354 222.755447,488.405182 219.441772,488.268860 
	C215.462769,488.105164 211.474396,488.169098 206.493866,488.132050 
z"/>
<path fill="#000000" opacity="1.000000" stroke="none" 
	d="
M819.863159,472.851562 
	C824.330505,468.334961 828.488342,464.017395 832.778503,459.835602 
	C837.827942,454.913757 843.470337,454.565643 847.847656,458.743256 
	C851.658691,462.380371 851.486511,469.577759 847.145386,474.076202 
	C840.098267,481.378601 832.808716,488.446411 825.699646,495.689911 
	C814.856506,506.738098 804.110840,517.882019 793.262024,528.924561 
	C787.880432,534.402222 782.214478,534.694031 776.588867,529.316589 
	C767.686340,520.806702 759.006409,512.058044 750.402344,503.244476 
	C746.408813,499.153687 746.647461,492.628998 750.495667,488.812286 
	C754.542358,484.798584 760.348022,484.860199 764.765503,489.195770 
	C770.110657,494.441864 775.411194,499.743530 780.508972,505.227509 
	C783.068481,507.981049 784.906372,507.820160 787.466431,505.223419 
	C798.099670,494.438293 808.883606,483.801727 819.863159,472.851562 
z"/>
</svg>