<svg version="1.1" id="Layer_1" xmlns="http://www.w3.org/2000/svg" xmlns:xlink="http://www.w3.org/1999/xlink" x="0px" y="0px"
	 width="100%" viewBox="0 0 432 304" enable-background="new 0 0 432 304" xml:space="preserve">
<path fill="#000000" opacity="1.000000" stroke="none" 
	d="
M324.325745,148.996567 
	C321.580139,156.390839 321.896637,162.009872 327.042786,168.770050 
	C338.371124,183.651398 336.013977,212.485992 318.125427,223.558655 
	C316.190704,224.756210 315.734344,226.023148 316.043640,228.450653 
	C318.543060,248.067062 304.286591,266.485077 284.450287,269.482147 
	C281.184082,269.975647 278.794739,271.195740 276.585754,273.937012 
	C258.642273,296.204468 230.176544,298.914642 209.717499,282.368530 
	C200.415634,274.845703 194.561569,265.499756 194.599731,252.874908 
	C194.751236,202.733490 194.617676,152.591278 194.695801,102.449524 
	C194.712555,91.696823 197.024734,81.560448 204.946732,73.588188 
	C216.352997,62.109509 234.756607,59.834431 249.728638,68.127090 
	C252.922150,69.895905 255.829163,71.331139 259.556091,69.905205 
	C261.500427,69.161308 263.539093,70.049995 265.408295,70.664108 
	C279.746674,75.374870 291.717010,82.787308 296.451233,98.309662 
	C297.087616,100.396263 297.938477,102.084930 300.254150,103.161240 
	C317.373016,111.117897 327.381866,130.133438 324.325745,148.996567 
M259.327484,100.590446 
	C256.176819,106.021057 250.979935,109.088547 245.830765,112.173546 
	C238.464539,116.586815 233.840897,122.880371 233.604645,131.550842 
	C233.470551,136.471466 234.352234,141.452499 235.101303,146.356720 
	C236.216736,153.659683 230.249786,161.310303 223.204819,161.292892 
	C218.444183,161.281128 215.470993,157.692215 217.907867,154.013229 
	C222.536545,147.025208 222.090439,139.442612 221.680588,131.856674 
	C221.327942,125.329323 223.401947,119.883553 226.907120,114.557243 
	C230.733841,108.742325 235.200790,103.880127 241.337677,100.371811 
	C246.829834,97.232071 248.607452,91.956413 247.697388,85.773155 
	C246.889984,80.287544 242.955231,78.088249 238.182404,76.811539 
	C222.544373,72.628372 207.451370,83.648300 207.353653,99.767471 
	C207.165771,130.762894 207.515015,161.762512 207.180893,192.755432 
	C207.101059,200.162399 210.117615,205.498657 214.792938,210.461563 
	C219.145874,215.082245 224.656525,217.674225 230.619232,219.600708 
	C233.266830,220.456100 235.176315,220.369537 237.351318,218.359268 
	C243.395233,212.773132 251.096619,211.140167 258.939209,210.191605 
	C261.935852,209.829163 264.394257,211.248199 266.369812,213.560043 
	C268.517365,216.073166 268.461517,218.080826 265.739014,220.276794 
	C262.943207,222.531876 259.649963,222.726105 256.420288,223.369568 
	C252.648956,224.120941 248.278351,224.554626 246.095520,227.778778 
	C242.213303,233.513046 238.166473,239.317871 236.679581,246.339783 
	C235.646881,251.216812 239.235184,254.347717 241.013519,258.182037 
	C242.048538,260.413727 243.265686,262.816040 241.038742,265.131287 
	C238.966019,267.286194 236.384064,267.594635 233.647720,267.001007 
	C230.859299,266.396088 228.893204,264.577637 227.615372,262.132782 
	C224.550781,256.269348 222.570938,250.213989 224.395889,243.450684 
	C225.381363,239.798447 226.056076,236.062347 226.966934,231.928696 
	C219.971283,230.077255 214.114487,226.173126 207.276733,221.993912 
	C207.276733,231.885651 207.810226,240.569504 207.152588,249.162186 
	C206.148163,262.285492 212.851746,270.296722 223.080154,276.868896 
	C234.243240,284.041656 258.547607,280.144043 264.835754,265.421997 
	C267.627808,258.885101 267.239319,254.848404 261.562653,250.638947 
	C259.957672,249.448776 258.163940,248.484085 256.681610,247.163620 
	C253.709229,244.515839 254.145813,241.081299 255.464859,237.966080 
	C256.718811,235.004517 259.436096,235.692108 261.982635,236.298935 
	C271.046875,238.458847 276.594177,244.580490 280.095184,252.717194 
	C281.462708,255.895401 283.118225,257.259338 286.526672,256.378082 
	C293.924957,254.465332 302.625458,244.629150 303.708282,237.025391 
	C304.134399,234.033310 303.253662,232.222702 300.123047,231.641464 
	C297.495026,231.153519 294.954529,230.332047 292.754425,228.717499 
	C288.710632,225.749924 288.756012,223.185165 292.990509,220.437271 
	C295.025543,219.116653 296.467529,217.367889 297.456848,215.194138 
	C300.052032,209.492004 297.601196,201.887024 291.679230,197.644165 
	C285.765900,193.407486 279.475952,193.055710 272.711029,195.614929 
	C268.993164,197.021423 264.885468,197.218277 262.393524,193.351395 
	C260.805908,190.887848 264.983948,184.624695 268.742767,183.157608 
	C269.205658,182.976929 269.698517,182.874573 270.170532,182.715302 
	C275.499176,180.916916 280.908234,180.795029 286.423492,181.721481 
	C298.940979,183.824173 307.414978,192.235748 309.448792,204.626678 
	C309.813934,206.851242 310.434937,209.033813 310.916870,211.143967 
	C313.323761,211.195435 314.175873,209.572693 315.192169,208.349854 
	C325.814148,195.569443 322.621063,170.615158 300.854156,165.484909 
	C298.753418,164.989777 296.621887,164.601746 294.487152,164.280029 
	C291.233917,163.789764 289.966278,161.620056 289.892914,158.686722 
	C289.819794,155.763031 291.042358,153.585815 294.128265,152.720657 
	C298.039886,151.623993 301.986298,151.017059 305.924622,152.245163 
	C309.157074,153.253159 310.721100,151.852234 311.347321,148.962723 
	C313.684967,138.176758 310.912170,128.590607 304.226898,120.036255 
	C303.337921,118.898750 301.938202,118.103241 300.662109,117.337601 
	C298.179993,115.848412 295.828735,115.795570 293.229431,117.550941 
	C289.790161,119.873558 286.075256,121.794502 282.441711,123.821518 
	C275.940002,127.448570 275.713379,127.645821 277.645020,134.703644 
	C280.902191,146.604858 278.221954,156.712997 268.902191,164.893799 
	C265.357910,168.004944 260.983948,169.819778 256.827606,171.888336 
	C246.552063,177.002335 238.819092,183.895447 238.219391,196.327209 
	C238.180679,197.129562 237.662033,197.897003 237.502396,198.707443 
	C237.000275,201.256424 235.526230,202.457428 232.914169,202.172195 
	C230.264496,201.882843 228.247009,201.122391 227.635635,197.941437 
	C226.197372,190.458267 227.989746,183.722626 231.937119,177.480988 
	C237.113174,169.296524 244.666672,164.084671 253.506027,160.381332 
	C263.346283,156.258652 266.879822,149.270203 265.030212,138.788879 
	C264.538910,136.004593 264.054932,133.256989 263.227234,130.527145 
	C261.089050,123.474922 264.768494,117.667625 274.154388,112.763260 
	C282.631042,108.333992 284.334625,101.077408 278.308899,93.462479 
	C274.318542,88.419731 269.754700,83.901390 262.009888,84.294029 
	C263.113190,90.243111 262.257141,95.240768 259.327484,100.590446 
z"/>
<path fill="#000000" opacity="1.000000" stroke="none" 
	d="
M116.443420,178.998413 
	C118.221436,182.204041 118.373711,185.322021 118.350952,188.523987 
	C118.173294,213.519409 118.072906,238.515396 117.888634,263.510773 
	C117.854034,268.204559 117.978584,272.786896 120.040718,277.176819 
	C121.910675,281.157654 120.857025,284.632355 117.459702,287.401611 
	C114.384766,289.908020 110.975800,290.191101 107.714752,288.157013 
	C104.048500,285.870209 102.183365,282.586487 103.285233,277.974396 
	C104.791122,271.671204 105.611084,265.278381 105.776886,258.764221 
	C105.871101,255.062607 104.569267,252.602341 101.873924,250.166351 
	C87.412247,237.096146 73.316071,223.614227 58.655018,210.775406 
	C52.509102,205.393387 49.887966,199.228165 50.761356,191.450516 
	C51.238819,187.198669 49.946545,184.486588 46.505520,181.728699 
	C35.234730,172.695511 38.032909,154.980453 51.249611,149.897293 
	C59.170738,146.850815 69.188744,150.855209 73.377434,158.742203 
	C77.929352,167.313126 75.501442,177.345917 67.474106,183.136490 
	C62.700947,186.579636 61.094009,195.569107 65.226997,199.554520 
	C78.024216,211.894821 91.154366,223.889877 104.159340,236.022766 
	C106.244446,234.863998 105.609581,233.001678 105.617226,231.488632 
	C105.685394,217.990692 105.607536,204.491837 105.707878,190.994278 
	C105.738586,186.863205 104.472664,183.507751 101.177010,180.968079 
	C97.291260,177.973648 94.244781,174.091110 91.965179,169.935379 
	C89.142853,164.790253 90.601944,158.868591 91.003349,153.306320 
	C91.591713,145.153427 91.611870,137.727158 84.145378,131.815521 
	C78.973511,127.720650 74.508415,122.597816 69.223267,118.569901 
	C64.128136,114.686790 61.731098,109.844963 61.749954,103.593842 
	C61.755482,101.761543 61.514706,99.912498 61.687328,98.099747 
	C62.188515,92.836693 61.000954,89.080696 56.121220,85.569366 
	C47.207439,79.155243 46.795189,66.567123 54.193188,58.692501 
	C61.431522,50.987839 72.950851,50.974358 80.386887,58.661842 
	C87.756310,66.280479 87.010223,79.172157 78.786911,86.307785 
	C72.123230,92.090065 72.479698,104.803307 79.192818,110.691246 
	C85.452454,116.181435 91.431328,121.993240 97.496696,127.702881 
	C101.460739,131.434433 103.456688,135.984512 103.304794,141.517487 
	C103.131096,147.844437 103.268394,154.180267 103.073715,160.506195 
	C102.952766,164.436462 103.981247,167.450317 107.342194,169.950104 
	C110.651245,172.411270 113.815880,175.206238 116.443420,178.998413 
M60.981937,172.712662 
	C64.082382,168.601822 64.028564,165.178345 60.826183,162.804855 
	C57.925030,160.654617 53.679596,161.067856 51.930603,163.814972 
	C49.731297,167.269394 50.924770,170.204819 53.765076,172.606308 
	C55.759705,174.292770 58.075203,174.040131 60.981937,172.712662 
M61.819244,69.345909 
	C61.009022,74.992775 64.083511,78.516167 68.514923,76.999863 
	C71.116867,76.109558 72.659706,74.328896 72.854355,71.529678 
	C73.006386,69.343300 72.254341,67.472069 70.154823,66.680237 
	C67.138153,65.542503 64.274406,65.726707 61.819244,69.345909 
z"/>
<path fill="#000000" opacity="1.000000" stroke="none" 
	d="
M182.284973,197.000061 
	C182.287140,228.479996 182.309052,259.459930 182.247757,290.439728 
	C182.243469,292.607483 183.346664,295.571198 180.478241,296.626160 
	C177.506348,297.719208 174.237625,297.511627 171.157837,296.585236 
	C169.848892,296.191498 169.734528,294.861115 169.705582,293.669220 
	C169.665131,292.004517 169.652328,290.338806 169.652267,288.673523 
	C169.649918,220.717545 169.628067,152.761551 169.705765,84.805672 
	C169.710419,80.731354 169.075500,78.034821 164.964966,75.651360 
	C156.065475,70.491051 154.503387,58.545517 160.903671,50.452576 
	C167.836060,41.686813 180.681580,40.654049 188.727753,48.215561 
	C196.477753,55.498779 196.644913,68.837029 188.015228,75.053040 
	C182.936295,78.711426 182.244827,82.696968 182.260941,88.070808 
	C182.369308,124.213593 182.297867,160.356918 182.284973,197.000061 
M178.616913,66.075546 
	C181.065933,63.990131 183.088516,61.575218 180.385117,58.544609 
	C178.249710,56.150719 175.072250,55.324970 172.215271,56.935780 
	C169.471436,58.482796 169.678680,61.574673 170.689880,64.071747 
	C172.056259,67.446037 174.742615,68.195732 178.616913,66.075546 
z"/>
<path fill="#000000" opacity="1.000000" stroke="none" 
	d="
M133.119324,297.117004 
	C128.305206,297.262512 128.620438,294.228882 128.622375,291.309814 
	C128.640961,263.494965 128.627563,235.680084 128.637589,207.865219 
	C128.643997,190.043762 128.610474,172.221817 128.748016,154.401260 
	C128.775391,150.855560 128.122467,148.203766 125.060471,145.826904 
	C121.545647,143.098526 118.723427,139.484665 115.555405,136.300156 
	C113.721306,134.456528 113.650787,132.173218 113.651466,129.806503 
	C113.654564,118.980423 113.542465,108.153458 113.657852,97.328804 
	C113.691490,94.173820 112.729202,92.176338 109.935822,90.422447 
	C102.269363,85.608902 99.876076,76.967041 103.318565,68.091019 
	C106.563248,59.725033 115.598312,54.315754 123.979858,55.721134 
	C131.964066,57.059887 139.065613,64.866508 139.110672,73.292122 
	C139.148056,80.286903 136.194199,86.249252 130.240067,90.274132 
	C128.091751,91.726349 127.032516,93.329605 127.001122,95.960762 
	C126.885979,105.612457 126.670547,115.264412 126.344856,124.911270 
	C126.242981,127.929047 126.787445,130.491608 129.239670,132.456802 
	C138.497818,139.876251 140.941193,149.143204 140.690399,161.183517 
	C139.795685,204.136230 140.354568,247.119125 140.353683,290.090607 
	C140.353546,297.044556 140.330933,297.044556 133.119324,297.117004 
M121.312630,68.103088 
	C117.049301,68.219673 114.292389,70.144196 114.083519,74.617607 
	C113.898262,78.585358 116.856323,79.729080 119.972755,79.982590 
	C122.931686,80.223289 125.774979,79.267159 126.572708,75.940147 
	C127.488586,72.120377 125.785072,69.513466 121.312630,68.103088 
z"/>
<path fill="#000000" opacity="1.000000" stroke="none" 
	d="
M161.201660,257.000000 
	C161.194855,268.822174 161.239746,280.144745 161.156403,291.466339 
	C161.117477,296.754425 160.287125,297.098816 153.778275,297.219818 
	C149.553726,297.298340 148.505630,295.632080 148.516479,291.582275 
	C148.661301,237.469193 148.692688,183.355606 148.608658,129.242371 
	C148.597687,122.171410 150.205322,115.063766 147.840225,107.976913 
	C146.836044,104.967979 148.275330,102.019814 151.154053,100.265556 
	C153.938995,98.568443 156.823578,98.522163 159.646881,100.298820 
	C162.452866,102.064583 164.112289,104.719131 163.345627,107.885124 
	C159.845123,122.340378 161.335739,137.028259 161.224472,151.603790 
	C160.957565,186.567215 161.177429,221.534363 161.201660,257.000000 
z"/>
</svg>